<?xml version="1.0" standalone="no"?>
<!DOCTYPE svg PUBLIC "-//W3C//DTD SVG 20010904//EN"
 "http://www.w3.org/TR/2001/REC-SVG-20010904/DTD/svg10.dtd">
<svg version="1.0" xmlns="http://www.w3.org/2000/svg"
 width="284.000000pt" height="284.000000pt" viewBox="0 0 284.000000 284.000000"
 preserveAspectRatio="xMidYMid meet">
<metadata>
Created by potrace 1.14, written by Peter Selinger 2001-2017
</metadata>
<g transform="translate(0.000000,284.000000) scale(0.100000,-0.100000)"
fill="#000000" stroke="none">
<path d="M110 1768 l0 -855 27 -14 c16 -8 30 -16 33 -19 20 -22 144 -89 153
-84 7 4 9 4 5 -1 -8 -8 52 -55 71 -55 5 0 11 -3 13 -7 4 -9 182 -123 192 -123
4 0 15 -8 26 -17 10 -10 36 -27 57 -38 21 -11 40 -22 43 -25 20 -21 144 -89
153 -84 7 4 9 4 5 -1 -8 -8 53 -55 71 -55 6 0 11 -4 11 -8 0 -5 18 -17 40 -28
22 -10 40 -22 40 -25 0 -3 18 -14 40 -24 22 -10 40 -22 40 -26 0 -18 38 -13
72 8 21 13 41 23 46 23 4 0 18 9 30 20 12 12 22 18 22 14 0 -3 6 -1 14 5 8 6
18 10 22 9 5 -2 19 6 31 17 39 36 49 42 66 39 9 -1 15 1 12 5 -2 5 7 14 21 22
22 11 27 11 35 -1 8 -11 9 -9 4 9 -5 16 -4 21 4 17 6 -4 14 0 17 8 3 9 10 14
14 11 5 -3 15 2 23 10 9 8 21 15 27 15 7 0 31 13 55 29 32 22 46 26 55 17 8
-8 10 -7 5 5 -7 18 39 44 58 32 7 -4 6 1 -2 10 -12 15 -12 17 3 11 9 -4 16 -1
16 6 0 7 8 10 20 7 11 -3 18 -1 15 4 -8 11 53 41 67 33 6 -4 8 -3 4 4 -4 6 14
22 44 38 27 15 48 30 45 34 -6 9 27 6 44 -5 10 -6 12 -4 6 4 -7 12 13 31 60
57 45 24 96 54 134 78 22 15 45 26 51 26 5 0 10 5 10 11 0 6 7 8 18 4 14 -5
15 -4 5 6 -17 17 -17 46 -1 52 10 4 10 6 1 6 -10 1 -13 166 -13 754 0 413 0
782 0 820 l0 67 -67 -36 c-38 -20 -111 -60 -163 -89 -52 -29 -131 -72 -175
-95 -44 -24 -94 -51 -111 -61 -18 -10 -76 -41 -130 -70 -55 -29 -103 -55 -109
-59 -5 -4 -48 -28 -95 -53 -47 -24 -115 -61 -152 -81 -38 -20 -68 -34 -68 -31
0 3 -9 -3 -20 -12 -22 -19 -60 -27 -60 -13 0 6 -4 10 -8 10 -5 0 -34 14 -66
31 -50 27 -55 33 -44 47 11 15 11 15 -3 4 -17 -13 -53 -6 -43 9 3 5 -2 6 -10
3 -9 -3 -16 -2 -16 4 0 6 -14 15 -30 21 -16 5 -30 15 -30 21 0 6 -4 8 -10 5
-5 -3 -10 -1 -10 6 0 7 -3 10 -6 7 -3 -4 -22 5 -41 18 -20 13 -42 24 -49 24
-7 0 -19 8 -26 18 -7 9 -19 18 -27 20 -27 6 -101 54 -96 62 3 5 0 12 -6 16 -8
4 -9 3 -5 -4 12 -21 -7 -13 -82 31 -39 24 -69 47 -65 52 5 4 3 5 -4 1 -10 -5
-149 71 -320 176 l-33 20 0 -854z m577 -893 c0 -8 -4 -12 -9 -9 -5 3 -6 10 -3
15 9 13 12 11 12 -6z"/>
<path d="M396 2473 c-6 -14 -5 -15 5 -6 7 7 10 15 7 18 -3 3 -9 -2 -12 -12z"/>
<path d="M780 2346 c0 -2 8 -10 18 -17 15 -13 16 -12 3 4 -13 16 -21 21 -21
13z"/>
<path d="M675 2321 c-3 -5 -2 -12 3 -15 5 -3 9 1 9 9 0 17 -3 19 -12 6z"/>
<path d="M2306 2298 c3 -5 10 -6 15 -3 13 9 11 12 -6 12 -8 0 -12 -4 -9 -9z"/>
<path d="M2320 2280 c-9 -6 -10 -10 -3 -10 6 0 15 5 18 10 8 12 4 12 -15 0z"/>
<path d="M2310 2242 c0 -5 7 -9 15 -9 8 0 12 4 9 9 -3 4 -9 8 -15 8 -5 0 -9
-4 -9 -8z"/>
<path d="M2313 2185 c0 -8 4 -12 9 -9 5 3 6 10 3 15 -9 13 -12 11 -12 -6z"/>
<path d="M2419 2008 c-5 -18 -6 -38 -1 -34 7 8 12 36 6 36 -2 0 -4 -1 -5 -2z"/>
<path d="M2375 1940 c3 -5 8 -10 11 -10 2 0 4 5 4 10 0 6 -5 10 -11 10 -5 0
-7 -4 -4 -10z"/>
<path d="M2419 1948 c-5 -18 -6 -38 -1 -34 7 8 12 36 6 36 -2 0 -4 -1 -5 -2z"/>
<path d="M2314 1885 c0 -19 3 -32 5 -29 8 7 9 54 2 59 -4 2 -7 -12 -7 -30z"/>
<path d="M2426 1882 c-3 -5 1 -9 9 -9 8 0 12 4 9 9 -3 4 -7 8 -9 8 -2 0 -6 -4
-9 -8z"/>
<path d="M2350 1736 c0 -2 8 -10 18 -17 15 -13 16 -12 3 4 -13 16 -21 21 -21
13z"/>
<path d="M2413 1669 c-2 -23 3 -25 10 -4 4 8 3 16 -1 19 -4 3 -9 -4 -9 -15z"/>
<path d="M2313 1625 c0 -8 4 -12 9 -9 5 3 6 10 3 15 -9 13 -12 11 -12 -6z"/>
<path d="M2414 1616 c1 -8 5 -18 8 -22 4 -3 5 1 4 10 -1 8 -5 18 -8 22 -4 3
-5 -1 -4 -10z"/>
<path d="M2314 1555 c0 -13 3 -22 7 -19 8 4 6 30 -2 38 -3 3 -5 -5 -5 -19z"/>
<path d="M2425 1559 c-3 -4 2 -6 10 -5 21 3 28 13 10 13 -9 0 -18 -4 -20 -8z"/>
<path d="M2415 1360 c-3 -5 -1 -10 4 -10 6 0 11 5 11 10 0 6 -2 10 -4 10 -3 0
-8 -4 -11 -10z"/>
<path d="M2310 1276 c7 -7 13 -7 20 0 6 6 3 10 -10 10 -13 0 -16 -4 -10 -10z"/>
<path d="M2415 1280 c3 -5 8 -10 11 -10 2 0 4 5 4 10 0 6 -5 10 -11 10 -5 0
-7 -4 -4 -10z"/>
<path d="M2436 1238 c3 -5 10 -6 15 -3 13 9 11 12 -6 12 -8 0 -12 -4 -9 -9z"/>
<path d="M2320 1200 c-9 -6 -10 -10 -3 -10 6 0 15 5 18 10 8 12 4 12 -15 0z"/>
<path d="M2385 1080 c-3 -6 1 -7 9 -4 18 7 21 14 7 14 -6 0 -13 -4 -16 -10z"/>
<path d="M2415 1040 c-3 -5 -1 -10 4 -10 6 0 11 5 11 10 0 6 -2 10 -4 10 -3 0
-8 -4 -11 -10z"/>
<path d="M2355 1009 c-4 -6 -5 -12 -2 -15 2 -3 7 2 10 11 7 17 1 20 -8 4z"/>
<path d="M2373 935 c0 -8 4 -12 9 -9 5 3 6 10 3 15 -9 13 -12 11 -12 -6z"/>
<path d="M2133 769 c-2 -23 3 -25 10 -4 4 8 3 16 -1 19 -4 3 -9 -4 -9 -15z"/>
<path d="M2150 726 c0 -2 7 -7 16 -10 8 -3 12 -2 9 4 -6 10 -25 14 -25 6z"/>
<path d="M1955 699 c-3 -4 2 -6 10 -5 21 3 28 13 10 13 -9 0 -18 -4 -20 -8z"/>
<path d="M1916 653 c-6 -14 -5 -15 5 -6 7 7 10 15 7 18 -3 3 -9 -2 -12 -12z"/>
<path d="M1955 600 c-3 -5 -1 -10 4 -10 6 0 11 5 11 10 0 6 -2 10 -4 10 -3 0
-8 -4 -11 -10z"/>
<path d="M1530 446 c0 -2 7 -7 16 -10 8 -3 12 -2 9 4 -6 10 -25 14 -25 6z"/>
<path d="M1535 361 c-3 -5 -2 -12 3 -15 5 -3 9 1 9 9 0 17 -3 19 -12 6z"/>
</g>
</svg>
